<?xml version="1.0" encoding="UTF-8"?>
<svg version="1.1" xmlns="http://www.w3.org/2000/svg" width="1443" height="1740">
<path d="M0 0 C0.66 0.33 1.32 0.66 2 1 C2 1.66 2 2.32 2 3 C113.87 3 225.74 3 341 3 C341.33 2.34 341.66 1.68 342 1 C342.03738281 2.18335938 342.07476563 3.36671875 342.11328125 4.5859375 C342.50669488 15.62357997 342.50669488 15.62357997 345.171875 26.28125 C346.57366401 30.88334977 347.23406013 35.63360034 347.99755859 40.37719727 C348.30762489 43.99208043 348.30762489 43.99208043 350 47 C350.11110297 48.62333779 350.1869452 50.24908686 350.25 51.875 C350.68281841 57.77126392 351.91942132 63.24634316 353.4375 68.9375 C353.6550293 69.75395996 353.87255859 70.57041992 354.09667969 71.41162109 C354.98123781 74.63393995 355.88611247 77.72352556 357.16015625 80.81640625 C358 83 358 83 358 87 C358.31151288 89.33634657 358.64159778 91.67038557 359 94 C359.99 94.33 360.98 94.66 362 95 C362 95.99 362 96.98 362 98 C362.90347492 101.37297302 363.89585014 104.68755043 365 108 C365.33 107.67 365.66 107.34 366 107 C368.64 107 371.28 107 374 107 C374 114.92 374 122.84 374 131 C384.56 131 395.12 131 406 131 C406 155.09 406 179.18 406 204 C405.01 204 404.02 204 403 204 C404.70949622 213.72453646 404.70949622 213.72453646 408 223 C408.66 223.33 409.32 223.66 410 224 C413.03037439 228.74758654 415.11541167 233.58828024 417.0703125 238.86328125 C417.9134588 241.15764264 417.9134588 241.15764264 420 243 C421.32 243 422.64 243 424 243 C424 242.34 424 241.68 424 241 C425.98 241 427.96 241 430 241 C430 241.66 430 242.32 430 243 C432.64 243 435.28 243 438 243 C438 245.64 438 248.28 438 251 C438.66 251 439.32 251 440 251 C440 256.28 440 261.56 440 267 C439.01 267 438.02 267 437 267 C436.67 267.99 436.34 268.98 436 270 C435.34 269.67 434.68 269.34 434 269 C434.95092166 270.4263825 435.9022164 271.8525178 436.85546875 273.27734375 C437.93729431 274.90562045 439.00049842 276.54622483 440.0625 278.1875 C441.77979303 280.89619383 441.77979303 280.89619383 443.515625 282.4140625 C445.23581487 284.25194957 445.87186527 285.8182753 446.6875 288.1875 C446.93886719 288.90292969 447.19023438 289.61835938 447.44921875 290.35546875 C447.63097656 290.89816406 447.81273437 291.44085938 448 292 C448.66 291.01 449.32 290.02 450 289 C451.43505783 291.4216601 452.00553107 292.76769523 451.9375 295.625 C451.9684375 296.800625 451.9684375 296.800625 452 298 C452.99 298.66 453.98 299.32 455 300 C456.5 302.42578125 456.5 302.42578125 458 305.3125 C461.37290358 312.09433127 461.37290358 312.09433127 466 318 C467.06211884 319.29600512 468.10191969 320.61046105 469.125 321.9375 C469.66382813 322.62714844 470.20265625 323.31679688 470.7578125 324.02734375 C472 326 472 326 472 329 C472.66 327.68 473.32 326.36 474 325 C474.98280415 326.60194071 475.96111717 328.20663742 476.9375 329.8125 C477.75541016 331.15248047 477.75541016 331.15248047 478.58984375 332.51953125 C480 335 480 335 481 338 C481.66 338 482.32 338 483 338 C485.43160605 341.36683915 486 342.73350364 486 347 C488.31 347.66 490.62 348.32 493 349 C493 349.99 493 350.98 493 352 C493.33 350.35 493.66 348.7 494 347 C496.64 347 499.28 347 502 347 C502 349.64 502 352.28 502 355 C512.56 355 523.12 355 534 355 C534 360.28 534 365.56 534 371 C528.72 371 523.44 371 518 371 C518.185625 372.8975 518.37125 374.795 518.5625 376.75 C518.92365049 380.44176052 519.16306443 383.45049966 518 387 C518.763125 386.9175 519.52625 386.835 520.3125 386.75 C523 387 523 387 524.6875 388.6875 C526 391 526 391 526.73828125 393.32421875 C528.38029666 396.8065115 530.59150875 398.62216674 533.5 401.125 C538.82157676 405.73236515 538.82157676 405.73236515 541 409 C541.33 407.02 541.66 405.04 542 403 C549.92 403 557.84 403 566 403 C566.16585752 407.07499179 566.32834195 411.14989918 566.48217773 415.2253418 C566.53552222 416.61148768 566.59084559 417.99755889 566.64819336 419.38354492 C566.73031421 421.37658226 566.80471215 423.36993309 566.87890625 425.36328125 C566.9260376 426.56251221 566.97316895 427.76174316 567.02172852 428.99731445 C567 432 567 432 566 435 C566.73089844 435.25007813 567.46179688 435.50015625 568.21484375 435.7578125 C571.23008967 437.10262064 573.14213232 438.6440524 575.5625 440.875 C576.30628906 441.55304688 577.05007813 442.23109375 577.81640625 442.9296875 C578.53699219 443.61289062 579.25757813 444.29609375 580 445 C580.75152344 445.70382812 581.50304687 446.40765625 582.27734375 447.1328125 C584 449 584 449 584 451 C584.721875 450.731875 585.44375 450.46375 586.1875 450.1875 C589 450 589 450 591.6875 452.1875 C593.55702933 454.46125188 594.90007332 456.30017996 596 459 C596.66 458.34 597.32 457.68 598 457 C598.86625 458.175625 598.86625 458.175625 599.75 459.375 C601.82897637 461.80047244 603.09040333 462.85694417 606 464 C606 462.35 606 460.7 606 459 C608.64 459 611.28 459 614 459 C614 461.64 614 464.28 614 467 C613.030625 467.12375 612.06125 467.2475 611.0625 467.375 C610.051875 467.58125 609.04125 467.7875 608 468 C607.67 468.66 607.34 469.32 607 470 C607.83917969 470.37318359 607.83917969 470.37318359 608.6953125 470.75390625 C611.38486088 472.2080858 613.53049398 473.97644122 615.875 475.9375 C619.45784603 478.86270175 622.84199742 480.96934758 627 483 C627.763125 483.804375 628.52625 484.60875 629.3125 485.4375 C632.29253716 488.27893079 634.93999205 489.50429261 638.71875 491.0078125 C641 492 641 492 646 495 C646 491.04 646 487.08 646 483 C661.84 483 677.68 483 694 483 C694 324.6 694 166.2 694 3 C808.51 3 923.02 3 1041 3 C1041.33 2.01 1041.66 1.02 1042 0 C1042 448.8 1042 897.6 1042 1360 C923.53 1360 805.06 1360 683 1360 C683 1360.66 683 1361.32 683 1362 C683.66 1361.67 684.32 1361.34 685 1361 C686.93861168 1360.9051139 688.88056467 1360.8762721 690.82149696 1360.87695217 C692.06905128 1360.87496112 693.3166056 1360.87297007 694.60196459 1360.87091869 C695.99917979 1360.8737721 697.39639479 1360.87671771 698.79360962 1360.87974548 C700.26788965 1360.87930978 701.7421696 1360.8784349 703.21644914 1360.87715632 C707.28230211 1360.87491109 711.34812894 1360.87893303 715.41397858 1360.88393438 C719.79298911 1360.88823829 724.17199808 1360.8867925 728.55101013 1360.8860321 C736.14281185 1360.88550683 743.73460501 1360.88865398 751.32640457 1360.89426994 C762.30297815 1360.90238449 773.27954757 1360.90500012 784.25612383 1360.90625793 C802.06332969 1360.90844852 819.87053099 1360.9151088 837.67773438 1360.92456055 C854.97949195 1360.93373448 872.28124829 1360.94081541 889.58300781 1360.94506836 C890.64883979 1360.94533108 891.71467176 1360.94559381 892.81280167 1360.94586449 C898.15957384 1360.94716949 903.50634601 1360.94843321 908.85311818 1360.94967639 C953.23541529 1360.96004923 997.61770741 1360.97766774 1042 1361 C1042 1361.66 1042 1362.32 1042 1363 C1043.32 1363 1044.64 1363 1046 1363 C1046 1368.28 1046 1373.56 1046 1379 C919.28 1379 792.56 1379 662 1379 C662 1360.52 662 1342.04 662 1323 C663.65 1322.67 665.3 1322.34 667 1322 C666.45276317 1318.62537285 665.9451 1316.91765 664 1314 C663.26827036 1312.03675557 662.58525638 1310.0550282 661.9375 1308.0625 C661.59589844 1307.02222656 661.25429688 1305.98195313 660.90234375 1304.91015625 C660.19054327 1302.61452267 659.5467055 1300.33899777 659 1298 C658.34 1298 657.68 1298 657 1298 C653.93579207 1294.93579207 653.01449276 1291.25644854 651.74609375 1287.234375 C650.32810143 1282.98782207 648.12987756 1279.21724625 645.875 1275.375 C644.41963348 1272.75534026 643.46471538 1270.90447113 643 1268 C642.34 1268 641.68 1268 641 1268 C641 1266.68 641 1265.36 641 1264 C639.62213403 1260.21086857 637.75475562 1256.62733656 636 1253 C635.34204761 1251.58612372 634.68451864 1250.17205034 634.02734375 1248.7578125 C633.33199177 1247.29627362 632.63538126 1245.83533284 631.9375 1244.375 C631.60943359 1243.66375977 631.28136719 1242.95251953 630.94335938 1242.21972656 C629.884469 1239.96455025 629.884469 1239.96455025 628 1237 C625.94427189 1236.25867794 625.94427189 1236.25867794 624 1236 C624.04125 1234.88625 624.0825 1233.7725 624.125 1232.625 C624.41121859 1228.95633975 624.41121859 1228.95633975 622 1227 C621.2890625 1225.1171875 621.2890625 1225.1171875 620.625 1222.875 C619.17874869 1218.29891252 617.23668381 1214.24198653 615 1210 C614.34 1210.33 613.68 1210.66 613 1211 C612.45472656 1209.87464844 612.45472656 1209.87464844 611.8984375 1208.7265625 C608.94870248 1202.72120454 605.86171359 1196.91739982 602.296875 1191.25390625 C601 1189 601 1189 600.015625 1186.27734375 C599.68046875 1185.52582031 599.3453125 1184.77429687 599 1184 C598.01 1183.67 597.02 1183.34 596 1183 C596.33 1182.34 596.66 1181.68 597 1181 C597.66 1181 598.32 1181 599 1181 C598.67 1180.34 598.34 1179.68 598 1179 C597.34 1179.33 596.68 1179.66 596 1180 C592 1175.5 592 1175.5 592 1171 C591.37135558 1168.84383083 591.37135558 1168.84383083 590.5 1166.75 C590.2215625 1166.04359375 589.943125 1165.3371875 589.65625 1164.609375 C589.4396875 1164.07828125 589.223125 1163.5471875 589 1163 C587.68 1163.33 586.36 1163.66 585 1164 C584.54625 1163.05125 584.0925 1162.1025 583.625 1161.125 C582.19761746 1157.99686321 582.19761746 1157.99686321 580 1156 C579.33333333 1154.33333333 578.66666667 1152.66666667 578 1151 C577.34 1150.34 576.68 1149.68 576 1149 C576.375 1145.875 576.375 1145.875 577 1143 C576.34 1143 575.68 1143 575 1143 C573.30859375 1141.171875 573.30859375 1141.171875 571.4375 1138.75 C570.81746094 1137.96109375 570.19742188 1137.1721875 569.55859375 1136.359375 C567.67849343 1133.51330835 567 1131.38261029 567 1128 C566.67 1128 566.34 1128 566 1128 C566 1126.35 566 1124.7 566 1123 C564.35 1123.33 562.7 1123.66 561 1124 C561 1123 561 1122 561 1121 C560.505 1120.360625 560.01 1119.72125 559.5 1119.0625 C558 1117 558 1117 558 1115 C557.4225 1114.95875 556.845 1114.9175 556.25 1114.875 C554 1114 554 1114 552.25 1111 C550.38571014 1107.89864204 550.38571014 1107.89864204 547.96875 1107.3828125 C545.98840313 1107.15270177 543.99256448 1107.06641882 542 1107 C542 1104.36 542 1101.72 542 1099 C543.65 1099 545.3 1099 547 1099 C546.505 1098.236875 546.01 1097.47375 545.5 1096.6875 C544 1094 544 1094 544 1091 C543.34 1091 542.68 1091 542 1091 C538.125 1084.375 538.125 1084.375 537 1081 C535.87917445 1078.41347949 534.69485531 1076.6320314 532.875 1074.4375 C531 1072 531 1072 531 1069 C530.34 1069 529.68 1069 529 1069 C528.34 1068.34 527.68 1067.68 527 1067 C526.21625 1066.9175 525.4325 1066.835 524.625 1066.75 C522 1066 522 1066 520.1875 1063 C518.38388543 1059.89482862 518.38388543 1059.89482862 515.97265625 1059.3828125 C513.99097229 1059.15295109 511.99386317 1059.06646211 510 1059 C510 1056.36 510 1053.72 510 1051 C511.98 1050.67 513.96 1050.34 516 1050 C515.63648438 1049.52578613 515.27296875 1049.05157227 514.8984375 1048.56298828 C513.26065064 1046.42074207 511.63026055 1044.27297842 510 1042.125 C509.42765625 1041.37863281 508.8553125 1040.63226562 508.265625 1039.86328125 C507.72421875 1039.14785156 507.1828125 1038.43242188 506.625 1037.6953125 C506.12226562 1037.03547363 505.61953125 1036.37563477 505.1015625 1035.69580078 C504 1034 504 1034 504 1032 C503.34 1032 502.68 1032 502 1032 C501.67 1031.01 501.34 1030.02 501 1029 C500.34 1028.67 499.68 1028.34 499 1028 C499 1027.34 499 1026.68 499 1026 C498.34 1025.67 497.68 1025.34 497 1025 C496.855625 1024.360625 496.71125 1023.72125 496.5625 1023.0625 C496.13834965 1020.61789145 496.13834965 1020.61789145 493 1019 C492.34 1019.33 491.68 1019.66 491 1020 C490.66226563 1019.50628906 490.32453125 1019.01257812 489.9765625 1018.50390625 C489.53054688 1017.86324219 489.08453125 1017.22257812 488.625 1016.5625 C488.18414063 1015.92441406 487.74328125 1015.28632812 487.2890625 1014.62890625 C486.07839147 1012.86259072 486.07839147 1012.86259072 484 1012 C483.01238779 1010.28813884 482.02739689 1008.57460254 481.06640625 1006.84765625 C479.10738719 1003.45345839 477.25141925 1000.71509671 473.8125 998.75 C469.91423686 997.71046316 466.01369209 997.33228823 462 997 C462 996.34 462 995.68 462 995 C459.36 995 456.72 995 454 995 C454 989.72 454 984.44 454 979 C448.72 979 443.44 979 438 979 C438 973.72 438 968.44 438 963 C427.44 963 416.88 963 406 963 C406 952.44 406 941.88 406 931 C400.72 931 395.44 931 390 931 C390 923.08 390 915.16 390 907 C391.65 907 393.3 907 395 907 C389.08314642 897.4789652 389.08314642 897.4789652 381 890 C380.814375 888.8553125 380.814375 888.8553125 380.625 887.6875 C379.75468812 883.94515893 377.79872023 882.61619499 375 880 C373.15750207 877.91183568 371.35155119 875.79606481 369.55078125 873.671875 C368.08649533 871.89673637 368.08649533 871.89673637 366 871 C366 870.34 366 869.68 366 869 C365.4225 868.7525 364.845 868.505 364.25 868.25 C361.67060021 866.81700012 359.93878408 865.21575324 358 863 C358 862.34 358 861.68 358 861 C357.4225 860.7525 356.845 860.505 356.25 860.25 C353.67060021 858.81700012 351.93878408 857.21575324 350 855 C350 854.34 350 853.68 350 853 C349.01 852.67 348.02 852.34 347 852 C345.64251932 850.37102319 344.28690959 848.74044627 342.94140625 847.1015625 C339.84384617 843.7484693 336.26623159 841.02623021 332.68359375 838.2109375 C330 836 330 836 327.30859375 833.28515625 C325.20112769 830.89940419 325.20112769 830.89940419 322.625 830.0625 C318.40728953 828.35533148 314.065785 825.13157 312 821 C311.01 820.67 310.02 820.34 309 820 C308.86078125 819.3915625 308.7215625 818.783125 308.578125 818.15625 C307.77251028 815.15152484 306.23469771 814.31004469 303.75 812.5 C302.94175781 811.89800781 302.13351562 811.29601562 301.30078125 810.67578125 C300.16189453 809.84626953 300.16189453 809.84626953 299 809 C297.29668066 807.71382009 295.60949271 806.40181624 294 805 C294 804.34 294 803.68 294 803 C292.845 803.33 291.69 803.66 290.5 804 C286.22499413 805.08401934 282.39638547 805.15701377 278 805 C278 804.34 278 803.68 278 803 C277.34 803 276.68 803 276 803 C276 800.36 276 797.72 276 795 C276.66 795 277.32 795 278 795 C276.54819706 791.45977465 274.74284183 789.75941245 271.6875 787.5 C270.47900391 786.59121094 270.47900391 786.59121094 269.24609375 785.6640625 C268.50488281 785.11492188 267.76367188 784.56578125 267 784 C262.80766786 780.76047062 258.86757733 777.35477141 255.5625 773.1875 C253.15206148 771.35556672 250.92189274 771.80520715 248 772 C248.33 771.01 248.66 770.02 249 769 C248.0925 768.401875 247.185 767.80375 246.25 767.1875 C240.77777778 763.5042735 240.77777778 763.5042735 239 762 C239 761.34 239 760.68 239 760 C238.13375 759.72929688 237.2675 759.45859375 236.375 759.1796875 C228.90225597 756.56768669 221.27291993 752.87893772 215 748 C215 747.34 215 746.68 215 746 C214.01 746 213.02 746 212 746 C212 745.34 212 744.68 212 744 C210.68 743.67 209.36 743.34 208 743 C208 742.01 208 741.02 208 740 C207.01 739.67 206.02 739.34 205 739 C204.34 739.33 203.68 739.66 203 740 C203 739.34 203 738.68 203 738 C202.01 738 201.02 738 200 738 C200 737.34 200 736.68 200 736 C199.01 735.67 198.02 735.34 197 735 C197 734.34 197 733.68 197 733 C196.38125 732.71125 195.7625 732.4225 195.125 732.125 C193 731 193 731 191 729 C190.2575 728.731875 189.515 728.46375 188.75 728.1875 C186 727 186 727 183 724.4375 C179.882499 721.90453044 178.75500026 721.73268298 175 721 C171.87914593 719.13163947 168.98654568 717.03713776 166.4765625 714.3984375 C164.93888957 712.74476738 164.93888957 712.74476738 162 712 C162 711.34 162 710.68 162 710 C160.35 710.33 158.7 710.66 157 711 C156.67 710.01 156.34 709.02 156 708 C155.34 708 154.68 708 154 708 C153.67 708.66 153.34 709.32 153 710 C152.01 709.34 151.02 708.68 150 708 C147.10882964 707.67034544 147.10882964 707.67034544 143.78442383 707.68115234 C142.5033223 707.66128265 141.22222076 707.64141296 139.90229797 707.62094116 C138.50387749 707.60906473 137.10545517 707.59740188 135.70703125 707.5859375 C134.27641174 707.56722739 132.84580329 707.54765409 131.41520691 707.5272522 C127.65221673 707.47590817 123.88919077 707.43629479 120.1260376 707.39910889 C116.28510672 707.35908336 112.444325 707.30798443 108.60351562 707.2578125 C101.06910494 707.16102629 93.53463661 707.07765389 86 707 C86 699.08 86 691.16 86 683 C85.34 683 84.68 683 84 683 C84 680.36 84 677.72 84 675 C84.66 674.67 85.32 674.34 86 674 C84.865625 673.54625 83.73125 673.0925 82.5625 672.625 C79 671 79 671 78 669 C76.00511766 668.63729412 74.00401011 668.30830925 72 668 C70.31422289 667.38325228 68.64551962 666.71727778 67 666 C66.175 665.690625 65.35 665.38125 64.5 665.0625 C62 664 62 664 59.4375 662.4375 C57.15902011 661.09378109 55.56625743 660.48117327 53 660 C52.0925 659.814375 51.185 659.62875 50.25 659.4375 C49.5075 659.293125 48.765 659.14875 48 659 C48 658.34 48 657.68 48 657 C47.34 657.66 46.68 658.32 46 659 C42.55834679 658.64700993 40.93127462 657.95418308 38 656 C37.67 655.01 37.34 654.02 37 653 C35.3373217 652.64731066 33.66934283 652.31966139 32 652 C30.94425781 651.79375 29.88851563 651.5875 28.80078125 651.375 C24.58415233 650.95897084 21.37246304 651.5062207 17.25 652.4375 C10.27674672 654 10.27674672 654 7 654 C7 654.66 7 655.32 7 656 C5.68 655.34 4.36 654.68 3 654 C2.67 888.63 2.34 1123.26 2 1365 C-330 1365 -330 1365 -336 1363 C-336 1361.68 -336 1360.36 -336 1359 C-335.34 1359 -334.68 1359 -334 1359 C-334.33 1181.46 -334.66 1003.92 -335 821 C-333.35 821 -331.7 821 -330 821 C-328.22974384 819.9628762 -328.22974384 819.9628762 -326.8125 818.5 C-324 816 -324 816 -322 816 C-321.814375 815.1028125 -321.814375 815.1028125 -321.625 814.1875 C-321 812 -321 812 -319 809 C-316.375 808.8125 -316.375 808.8125 -314 809 C-314.226875 808.401875 -314.45375 807.80375 -314.6875 807.1875 C-315 805 -315 805 -313.9375 803.1875 C-312 802 -312 802 -308.8125 802.3125 C-307.884375 802.539375 -306.95625 802.76625 -306 803 C-306.20625 802.38125 -306.4125 801.7625 -306.625 801.125 C-306.74875 800.42375 -306.8725 799.7225 -307 799 C-306.34 798.34 -305.68 797.68 -305 797 C-302.66666667 797 -300.33333333 797 -298 797 C-297.34 795.68 -296.68 794.36 -296 793 C-296.33 792.67 -296.66 792.34 -297 792 C-297.66 792 -298.32 792 -299 792 C-298.505 789.525 -298.505 789.525 -298 787 C-297.13375 787.37125 -296.2675 787.7425 -295.375 788.125 C-291.44302674 789.14440048 -289.67062491 788.57312496 -286 787 C-286.495 785.515 -286.495 785.515 -287 784 C-286.0925 783.731875 -285.185 783.46375 -284.25 783.1875 C-281.25519697 782.09324505 -279.49405822 780.89204417 -277 779 C-276.01 779 -275.02 779 -274 779 C-273.67 777.68 -273.34 776.36 -273 775 C-272.01 775 -271.02 775 -270 775 C-270 774.34 -270 773.68 -270 773 C-269.01 773 -268.02 773 -267 773 C-267 772.34 -267 771.68 -267 771 C-264.98828125 769.37890625 -264.98828125 769.37890625 -262.3125 767.5625 C-261.44238281 766.96566406 -260.57226562 766.36882813 -259.67578125 765.75390625 C-252.42316258 761 -252.42316258 761 -250 761 C-250 760.34 -250 759.68 -250 759 C-248.68 759 -247.36 759 -246 759 C-246.33 757.35 -246.66 755.7 -247 754 C-245.68 754 -244.36 754 -243 754 C-239.8684413 753.10232344 -239.8684413 753.10232344 -237 751 C-236.01 751 -235.02 751 -234 751 C-234.33 749.35 -234.66 747.7 -235 746 C-233.68 746 -232.36 746 -231 746 C-230.01 745.34 -229.02 744.68 -228 744 C-225.89273028 743.36143342 -224.20271564 743 -222 743 C-221.67 742.01 -221.34 741.02 -221 740 C-218 738 -218 738 -214 738 C-213.67 737.01 -213.34 736.02 -213 735 C-211.0625 733.9375 -211.0625 733.9375 -209 733 C-208.34 732.34 -207.68 731.68 -207 731 C-206.01 730.67 -205.02 730.34 -204 730 C-201.9100377 728.73774554 -199.87994508 727.39966594 -197.83984375 726.05859375 C-196 725 -196 725 -194 725 C-194 724.34 -194 723.68 -194 723 C-191.36 722.34 -188.72 721.68 -186 721 C-186.061875 720.071875 -186.12375 719.14375 -186.1875 718.1875 C-186 715 -186 715 -184.5 713.125 C-184.005 712.75375 -183.51 712.3825 -183 712 C-183 712.99 -183 713.98 -183 715 C-175.49247403 713.76925804 -169.37621897 711.19008675 -163 707 C-162.67 706.34 -162.34 705.68 -162 705 C-160.15234375 704.3671875 -160.15234375 704.3671875 -157.9375 703.875 C-156.83728516 703.62363281 -156.83728516 703.62363281 -155.71484375 703.3671875 C-155.14894531 703.24601563 -154.58304688 703.12484375 -154 703 C-154 702.34 -154 701.68 -154 701 C-153.10023438 700.62230469 -152.20046875 700.24460937 -151.2734375 699.85546875 C-141.81726259 695.828186 -132.61396274 691.39202566 -123.45263672 686.7331543 C-122.10903076 686.05119995 -122.10903076 686.05119995 -120.73828125 685.35546875 C-119.54779175 684.74674927 -119.54779175 684.74674927 -118.33325195 684.12573242 C-116 683 -116 683 -113.32885742 681.9777832 C-110.86301873 681.11517802 -110.86301873 681.11517802 -109 679 C-108.34 679 -107.68 679 -107 679 C-106.67 678.34 -106.34 677.68 -106 677 C-104.68 677 -103.36 677 -102 677 C-103.98 676.67 -105.96 676.34 -108 676 C-105 674 -105 674 -101.75 674.5625 C-96.99982076 675.11668758 -95.15172995 674.24193417 -91 672 C-90.67 671.34 -90.34 670.68 -90 670 C-89.34 670.33 -88.68 670.66 -88 671 C-85.88853601 670.45100927 -85.88853601 670.45100927 -83.52734375 669.48828125 C-82.62693359 669.14216797 -81.72652344 668.79605469 -80.79882812 668.43945312 C-79.85458984 668.06755859 -78.91035156 667.69566406 -77.9375 667.3125 C-77.02033203 666.95994141 -76.10316406 666.60738281 -75.15820312 666.24414062 C-70.00388177 664.24597352 -64.9564047 662.12199946 -59.97485352 659.72338867 C-58 659 -58 659 -54 659 C-54 658.34 -54 657.68 -54 657 C-51.31707555 655.98598131 -48.62974283 654.98871449 -45.9375 654 C-45.18533203 653.71382812 -44.43316406 653.42765625 -43.65820312 653.1328125 C-38.87663136 651.39405913 -35.0863079 650.6757732 -30 651 C-30 650.34 -30 649.68 -30 649 C-27.04715493 648.00374445 -24.08694261 647.03133901 -21.125 646.0625 C-20.30257813 645.78470703 -19.48015625 645.50691406 -18.6328125 645.22070312 C-17.8078125 644.95322266 -16.9828125 644.68574219 -16.1328125 644.41015625 C-15.01737061 644.04096069 -15.01737061 644.04096069 -13.87939453 643.66430664 C-11.16307711 643.03762361 -8.59155068 642.72210647 -5.82003784 642.45848083 C-4.91789488 642.37166266 -4.01575191 642.28484449 -3.08627129 642.19539547 C-2.39780176 642.13091496 -1.70933224 642.06643446 -1 642 C-1.00015598 641.44573628 -1.00031196 640.89147256 -1.00047267 640.32041297 C-1.01741194 580.00233103 -1.03311833 519.68424883 -1.04234314 459.36616516 C-1.0424812 458.46575704 -1.04261925 457.56534892 -1.04276149 456.63765571 C-1.04575411 437.0713456 -1.04852433 417.50503545 -1.05106533 397.93872527 C-1.05231271 388.34399718 -1.05360926 378.7492691 -1.05493164 369.15454102 C-1.0550624 368.19972881 -1.05519316 367.24491661 -1.05532788 366.2611707 C-1.05959243 335.28948284 -1.06710613 304.31779679 -1.07629722 273.34611003 C-1.08572184 241.52986575 -1.09188359 209.71362247 -1.09391499 177.89737682 C-1.09420316 173.40789591 -1.0945288 168.918415 -1.09487724 164.4289341 C-1.09494467 163.54530321 -1.09501209 162.66167232 -1.09508156 161.75126474 C-1.09626521 147.50309286 -1.10090848 133.25492409 -1.10683203 119.00675348 C-1.11270778 104.69717086 -1.11497087 90.38759133 -1.11350138 76.07800754 C-1.11273837 67.5669757 -1.11479016 59.05595514 -1.12079754 50.54492533 C-1.12453235 44.86788215 -1.12467435 39.19084641 -1.12183181 33.51380273 C-1.12031424 30.27378695 -1.12096333 27.03379708 -1.12488318 23.79378267 C-1.12885306 20.31205031 -1.12675961 16.83037465 -1.12304783 13.3486433 C-1.12567484 12.33134761 -1.12830186 11.31405191 -1.13100848 10.26592907 C-1.12876118 9.3432336 -1.12651389 8.42053813 -1.1241985 7.46988219 C-1.12435448 6.67297718 -1.12451046 5.87607217 -1.12467116 5.05501853 C-1 3 -1 3 0 0 Z M361 100 C362 102 362 102 362 102 Z M367 115 C368 117 368 117 368 117 Z M375 139 C376 141 376 141 376 141 Z M433 267 C434 269 434 269 434 269 Z M499 358 C500 360 500 360 500 360 Z M504 367 C505 369 505 369 505 369 Z M647 499 C647.33 499.66 647.66 500.32 648 501 C648.99 500.67 649.98 500.34 651 500 C649.68 499.67 648.36 499.34 647 499 Z M651 501 C651.99 501.99 652.98 502.98 654 504 C654.66 503.67 655.32 503.34 656 503 C653.525 502.01 653.525 502.01 651 501 Z M657 505 C657.99 505.99 658.98 506.98 660 508 C660.33 507.34 660.66 506.68 661 506 C659.68 505.67 658.36 505.34 657 505 Z M665 507 C664.67 507.66 664.34 508.32 664 509 C666.97 509.495 666.97 509.495 670 510 C670 509.01 670 508.02 670 507 C668.35 507 666.7 507 665 507 Z M678 518 C678 518.66 678 519.32 678 520 C678.66 519.67 679.32 519.34 680 519 C679.34 518.67 678.68 518.34 678 518 Z M682 521 C683 523 683 523 683 523 Z M693 525 C692.01 526.485 692.01 526.485 691 528 C691.99 528 692.98 528 694 528 C693.67 527.01 693.34 526.02 693 525 Z M2 644 C6 645 6 645 6 645 Z M136 697 C135.67 697.66 135.34 698.32 135 699 C135.99 698.67 136.98 698.34 138 698 C137.34 697.67 136.68 697.34 136 697 Z M201 735 C202 737 202 737 202 737 Z M-312 804 C-312 804.99 -312 805.98 -312 807 C-311.01 806.01 -310.02 805.02 -309 804 C-309.99 804 -310.98 804 -312 804 Z M384 888 C385 890 385 890 385 890 Z M397 902 C398 904 398 904 398 904 Z M399 904 C399.33 905.65 399.66 907.3 400 909 C400.66 908.67 401.32 908.34 402 908 C401.34 906.68 400.68 905.36 400 904 C399.67 904 399.34 904 399 904 Z M411 917 C412.35021826 921.41889613 414.26115668 923.34345343 418 926 C416.64978174 921.58110387 414.73884332 919.65654657 411 917 Z M426 935 C426.99 935.99 427.98 936.98 429 938 C428.67 937.01 428.34 936.02 428 935 C427.34 935 426.68 935 426 935 Z M433 943 C433.33 943.66 433.66 944.32 434 945 C434.33 944.34 434.66 943.68 435 943 C434.34 943 433.68 943 433 943 Z M435 945 C434.67 945.66 434.34 946.32 434 947 C434.99 946.67 435.98 946.34 437 946 C436.34 945.67 435.68 945.34 435 945 Z M487 1009 C487 1009.99 487 1010.98 487 1012 C487.66 1011.67 488.32 1011.34 489 1011 C488.34 1010.34 487.68 1009.68 487 1009 Z M489 1013 C490.3089572 1016.12197478 490.3089572 1016.12197478 493 1018 C491.6910428 1014.87802522 491.6910428 1014.87802522 489 1013 Z M550 1099 C551 1101 551 1101 551 1101 Z M646 1272 C647 1274 647 1274 647 1274 Z M647 1274 C648 1276 648 1276 648 1276 Z M673 1334 C674 1336 674 1336 674 1336 Z M679 1348 C680 1350 680 1350 680 1350 Z M680 1350 C681 1352 681 1352 681 1352 Z " fill="#000000" transform="translate(362,189)"/>
<path d="M0 0 C0.66 0 1.32 0 2 0 C2 1.65 2 3.3 2 5 C1.34 4.34 0.68 3.68 0 3 C0 2.01 0 1.02 0 0 Z " fill="#000000" transform="translate(935,1332)"/>
<path d="M0 0 C0 0.99 0 1.98 0 3 C-0.66 3 -1.32 3 -2 3 C-2 2.34 -2 1.68 -2 1 C-1.34 0.67 -0.68 0.34 0 0 Z " fill="#000000" transform="translate(72,975)"/>
<path d="M0 0 C0 0.66 0 1.32 0 2 C-1.32 1.67 -2.64 1.34 -4 1 C-2 0 -2 0 0 0 Z " fill="#000000" transform="translate(98,956)"/>
<path d="M0 0 C0.99 0.33 1.98 0.66 3 1 C3 1.66 3 2.32 3 3 C2.01 2.67 1.02 2.34 0 2 C0 1.34 0 0.68 0 0 Z " fill="#000000" transform="translate(894,587)"/>
<path d="M0 0 C0.66 0 1.32 0 2 0 C2 0.66 2 1.32 2 2 C1.01 1.67 0.02 1.34 -1 1 C-0.67 0.67 -0.34 0.34 0 0 Z " fill="#000000" transform="translate(99,954)"/>
<path d="M0 0 C1.485 0.99 1.485 0.99 3 2 C2.01 2.33 1.02 2.66 0 3 C0 2.01 0 1.02 0 0 Z " fill="#000000" transform="translate(102,951)"/>
<path d="M0 0 C0.99 0.33 1.98 0.66 3 1 C2.01 1.33 1.02 1.66 0 2 C0 1.34 0 0.68 0 0 Z " fill="#000000" transform="translate(295,849)"/>
<path d="M0 0 C1.32 0.33 2.64 0.66 4 1 C3.01 1.495 3.01 1.495 2 2 C1.34 1.34 0.68 0.68 0 0 Z " fill="#000000" transform="translate(394,843)"/>
<path d="M0 0 C0.99 0.99 1.98 1.98 3 3 C2.01 2.67 1.02 2.34 0 2 C0 1.34 0 0.68 0 0 Z " fill="#000000" transform="translate(993,674)"/>
<path d="M0 0 C0.99 0.495 0.99 0.495 2 1 C1.67 1.66 1.34 2.32 1 3 C0.67 2.01 0.34 1.02 0 0 Z " fill="#000000" transform="translate(899,1275)"/>
<path d="M0 0 C0.66 0 1.32 0 2 0 C2 0.66 2 1.32 2 2 C1.34 2 0.68 2 0 2 C0 1.34 0 0.68 0 0 Z " fill="#000000" transform="translate(35,1003)"/>
<path d="M0 0 C0.66 0 1.32 0 2 0 C1.67 0.66 1.34 1.32 1 2 C0.67 1.34 0.34 0.68 0 0 Z " fill="#000000" transform="translate(1027,1507)"/>
<path d="M0 0 C0.66 0 1.32 0 2 0 C1.67 0.66 1.34 1.32 1 2 C0.67 1.34 0.34 0.68 0 0 Z " fill="#000000" transform="translate(891,1261)"/>
<path d="M0 0 C0.99 0.495 0.99 0.495 2 1 C1.01 1.495 1.01 1.495 0 2 C0 1.34 0 0.68 0 0 Z " fill="#000000" transform="translate(799,459)"/>
<path d="" fill="#000000" transform="translate(0,0)"/>
<path d="" fill="#000000" transform="translate(0,0)"/>
<path d="" fill="#000000" transform="translate(0,0)"/>
<path d="" fill="#000000" transform="translate(0,0)"/>
<path d="" fill="#000000" transform="translate(0,0)"/>
<path d="" fill="#000000" transform="translate(0,0)"/>
<path d="" fill="#000000" transform="translate(0,0)"/>
<path d="" fill="#000000" transform="translate(0,0)"/>
<path d="" fill="#000000" transform="translate(0,0)"/>
<path d="" fill="#000000" transform="translate(0,0)"/>
<path d="" fill="#000000" transform="translate(0,0)"/>
<path d="" fill="#000000" transform="translate(0,0)"/>
<path d="" fill="#000000" transform="translate(0,0)"/>
<path d="" fill="#000000" transform="translate(0,0)"/>
<path d="" fill="#000000" transform="translate(0,0)"/>
<path d="" fill="#000000" transform="translate(0,0)"/>
<path d="" fill="#000000" transform="translate(0,0)"/>
<path d="" fill="#000000" transform="translate(0,0)"/>
<path d="" fill="#000000" transform="translate(0,0)"/>
<path d="" fill="#000000" transform="translate(0,0)"/>
<path d="" fill="#000000" transform="translate(0,0)"/>
<path d="" fill="#000000" transform="translate(0,0)"/>
<path d="" fill="#000000" transform="translate(0,0)"/>
<path d="" fill="#000000" transform="translate(0,0)"/>
<path d="" fill="#000000" transform="translate(0,0)"/>
<path d="" fill="#000000" transform="translate(0,0)"/>
<path d="" fill="#000000" transform="translate(0,0)"/>
<path d="" fill="#000000" transform="translate(0,0)"/>
<path d="" fill="#000000" transform="translate(0,0)"/>
<path d="" fill="#000000" transform="translate(0,0)"/>
<path d="" fill="#000000" transform="translate(0,0)"/>
<path d="" fill="#000000" transform="translate(0,0)"/>
<path d="" fill="#000000" transform="translate(0,0)"/>
</svg>
